HIERARCHY
ROOT Hips
{
	OFFSET 0.000000 89.005402 0.000000
	CHANNELS 6 Xposition Yposition Zposition Xrotation Yrotation Zrotation
	JOINT Spine
	{
		OFFSET 0.116900 10.681000 0.373400
		CHANNELS 3 Xrotation Yrotation Zrotation
		JOINT Spine1
		{
			OFFSET 0.000000 13.840401 0.053500
			CHANNELS 3 Xrotation Yrotation Zrotation
			JOINT Spine2
			{
				OFFSET 0.000000 14.712700 -0.366200
				CHANNELS 3 Xrotation Yrotation Zrotation
				JOINT Neck
				{
					OFFSET 0.000000 35.415497 -3.314200
					CHANNELS 3 Xrotation Yrotation Zrotation
					JOINT Head
					{
						OFFSET 0.000000 16.899200 1.218300
						CHANNELS 3 Xrotation Yrotation Zrotation
						JOINT HeadTop_End
						{
							OFFSET 0.000000 22.206207 2.192500
							CHANNELS 3 Xrotation Yrotation Zrotation
							End Site
							{
								OFFSET 0.000000 22.314178 0.000000
							}
						}
					}
				}
				JOINT LeftShoulder
				{
					OFFSET 12.896400 26.716293 -4.548400
					CHANNELS 3 Xrotation Yrotation Zrotation
					JOINT LeftArm
					{
						OFFSET 19.027000 -4.857010 -1.718400
						CHANNELS 3 Xrotation Yrotation Zrotation
						JOINT LeftForeArm
						{
							OFFSET 24.179897 0.000000 0.000000
							CHANNELS 3 Xrotation Yrotation Zrotation
							JOINT LeftHand
							{
								OFFSET 27.156403 0.000000 0.000000
								CHANNELS 3 Xrotation Yrotation Zrotation
								JOINT LeftHandIndex1
								{
									OFFSET 16.441200 0.000000 0.000000
									CHANNELS 3 Xrotation Yrotation Zrotation
									JOINT LeftHandIndex2
									{
										OFFSET 4.821899 0.000000 0.000000
										CHANNELS 3 Xrotation Yrotation Zrotation
										JOINT LeftHandIndex3
										{
											OFFSET 6.386497 0.000000 0.000000
											CHANNELS 3 Xrotation Yrotation Zrotation
											JOINT LeftHandIndex4
											{
												OFFSET 5.188988 0.000000 0.000000
												CHANNELS 3 Xrotation Yrotation Zrotation
												End Site
												{
													OFFSET -0.178703 5.185913 0.000177
												}
											}
										}
									}
								}
								JOINT LeftHandThumb1
								{
									OFFSET 6.534897 -5.032593 5.900300
									CHANNELS 3 Xrotation Yrotation Zrotation
									JOINT LeftHandThumb2
									{
										OFFSET 3.818176 -2.204422 2.204423
										CHANNELS 3 Xrotation Yrotation Zrotation
										JOINT LeftHandThumb3
										{
											OFFSET 3.252098 -1.877594 1.877601
											CHANNELS 3 Xrotation Yrotation Zrotation
											JOINT LeftHandThumb4
											{
												OFFSET 5.251778 -3.032120 3.032117
												CHANNELS 3 Xrotation Yrotation Zrotation
												End Site
												{
													OFFSET 0.000023 6.780014 0.000000
												}
											}
										}
									}
								}
							}
						}
					}
				}
				JOINT RightShoulder
				{
					OFFSET -12.896300 26.716293 -4.548400
					CHANNELS 3 Xrotation Yrotation Zrotation
					JOINT RightArm
					{
						OFFSET -19.027000 -4.857010 -1.718400
						CHANNELS 3 Xrotation Yrotation Zrotation
						JOINT RightForeArm
						{
							OFFSET -24.179897 0.000000 0.000000
							CHANNELS 3 Xrotation Yrotation Zrotation
							JOINT RightHand
							{
								OFFSET -27.156403 0.000000 0.000000
								CHANNELS 3 Xrotation Yrotation Zrotation
								JOINT RightHandThumb1
								{
									OFFSET -6.591202 -4.852203 5.988100
									CHANNELS 3 Xrotation Yrotation Zrotation
									JOINT RightHandThumb2
									{
										OFFSET -3.818176 -2.204422 2.204423
										CHANNELS 3 Xrotation Yrotation Zrotation
										JOINT RightHandThumb3
										{
											OFFSET -3.252098 -1.877594 1.877601
											CHANNELS 3 Xrotation Yrotation Zrotation
											JOINT RightHandThumb4
											{
												OFFSET -5.251778 -3.032120 3.032117
												CHANNELS 3 Xrotation Yrotation Zrotation
												End Site
												{
													OFFSET -0.000023 6.780014 0.000000
												}
											}
										}
									}
								}
								JOINT RightHandIndex1
								{
									OFFSET -16.029404 0.000000 0.000000
									CHANNELS 3 Xrotation Yrotation Zrotation
									JOINT RightHandIndex2
									{
										OFFSET -5.213303 0.000000 0.000000
										CHANNELS 3 Xrotation Yrotation Zrotation
										JOINT RightHandIndex3
										{
											OFFSET -6.386528 0.000000 0.000000
											CHANNELS 3 Xrotation Yrotation Zrotation
											JOINT RightHandIndex4
											{
												OFFSET -5.189026 0.000000 0.000000
												CHANNELS 3 Xrotation Yrotation Zrotation
												End Site
												{
													OFFSET 0.236702 5.183624 0.001972
												}
											}
										}
									}
								}
							}
						}
					}
				}
			}
		}
	}
	JOINT LeftUpLeg
	{
		OFFSET 14.073000 -7.904099 -1.463000
		CHANNELS 3 Xrotation Yrotation Zrotation
		JOINT LeftLeg
		{
			OFFSET -0.109806 -34.073280 4.093200
			CHANNELS 3 Xrotation Yrotation Zrotation
			JOINT LeftFoot
			{
				OFFSET 0.109806 -29.899420 -6.319000
				CHANNELS 3 Xrotation Yrotation Zrotation
				JOINT LeftToeBase
				{
					OFFSET 1.551100 -14.988700 20.535801
					CHANNELS 3 Xrotation Yrotation Zrotation
					JOINT LeftToe_End
					{
						OFFSET 0.221200 0.570800 13.248301
						CHANNELS 3 Xrotation Yrotation Zrotation
						End Site
						{
							OFFSET 0.000000 13.262435 0.000000
						}
					}
				}
			}
		}
	}
	JOINT RightUpLeg
	{
		OFFSET -13.839300 -7.904099 -1.463000
		CHANNELS 3 Xrotation Yrotation Zrotation
		JOINT RightLeg
		{
			OFFSET 0.109694 -34.073219 4.093300
			CHANNELS 3 Xrotation Yrotation Zrotation
			JOINT RightFoot
			{
				OFFSET -0.109694 -29.899384 -6.319200
				CHANNELS 3 Xrotation Yrotation Zrotation
				JOINT RightToeBase
				{
					OFFSET -1.551100 -14.988700 20.535801
					CHANNELS 3 Xrotation Yrotation Zrotation
					JOINT RightToe_End
					{
						OFFSET -0.221200 0.570900 13.248299
						CHANNELS 3 Xrotation Yrotation Zrotation
						End Site
						{
							OFFSET 0.000000 13.262440 0.000000
						}
					}
				}
			}
		}
	}
}
MOTION
Frames: 9
Frame Time: 0.033333
-2.496111 79.552048 114.177567 -3.077842 -3.542068 -2.797070 0.444962 -0.716660 2.482600 -0.020238 -0.500572 0.899906 -0.030307 -0.481216 0.912359 -3.964349 0.358360 -0.750865 -11.463367 1.798723 -4.122507 0.000000 -0.000000 -0.000001 2.061402 -11.203706 -9.713168 5.035955 -16.903762 -64.130060 0.000007 -7.381354 -0.000003 -7.018614 5.258061 7.039558 0.141744 1.392700 -11.622258 0.083769 1.072946 -8.927919 0.020971 0.538100 -4.463581 -0.000000 0.000000 -0.000000 6.277233 16.289398 13.440145 8.903334 12.226833 -1.301470 1.870999 3.746217 1.882196 -0.000003 -0.000000 -0.000001 0.993736 1.073079 11.950687 20.930903 22.107196 55.906611 -0.000007 23.077421 0.000024 -16.406912 0.676885 -6.619766 7.209035 -23.607009 -7.406036 6.867243 -11.189090 1.266694 -0.189211 -1.164790 -1.546965 -0.000000 -0.000001 0.000001 0.065106 -0.951205 7.830380 0.180041 -1.575131 13.040325 0.045145 -0.792682 6.518953 0.000001 0.000000 0.000000 -8.686020 5.887094 4.237849 63.276580 8.125503 1.986901 25.087196 -0.147572 -2.805340 -76.507360 9.082311 -7.389168 0.000000 -0.000000 -0.000000 -34.031298 -2.418398 5.282984 38.736274 0.603939 5.424381 1.683570 0.786192 -8.559449 -3.039613 0.000015 -0.000281 0.000000 0.000000 0.000000 
-2.772507 80.556854 117.824394 -2.579422 -3.161003 -2.701782 0.388839 -0.002683 2.393948 -0.042829 -0.058119 0.912999 -0.049125 -0.035613 0.920154 -3.816387 0.209760 -0.819130 -11.473845 0.992724 -4.101228 0.000001 0.000000 0.000000 2.100932 -11.251736 -9.868484 5.143293 -15.630555 -64.694042 0.000000 -6.020152 0.000000 -5.897786 5.830600 7.926010 0.141747 1.392699 -11.622264 0.083769 1.072947 -8.927920 0.020977 0.538100 -4.463581 0.000002 0.000000 -0.000000 6.277231 16.289402 13.440144 8.903339 12.226830 -1.301467 1.871006 3.746220 1.882196 -0.000003 -0.000000 0.000002 0.984889 0.879542 11.773400 21.022142 23.218726 54.809345 0.000001 24.825065 0.000003 -16.753038 1.326934 -7.960889 7.209034 -23.607009 -7.406036 6.867241 -11.189091 1.266695 -0.189213 -1.164793 -1.546963 -0.000001 0.000000 0.000001 0.065105 -0.951205 7.830382 0.180040 -1.575132 13.040329 0.045149 -0.792683 6.518952 -0.000001 0.000000 0.000001 -14.799755 5.208354 4.110614 65.583299 3.972143 0.683669 21.402048 -0.048809 -2.501112 -73.954597 3.655701 -2.645807 -0.000000 0.000000 -0.000000 -30.719875 -2.369989 5.222042 38.769732 0.852522 5.471377 -2.074871 1.044186 -8.704865 -3.109276 0.000005 -0.000079 0.000000 -0.000000 -0.000000 
-3.046877 81.709846 121.470360 -2.637744 -2.541359 -2.452721 0.419184 0.710541 2.192435 0.008602 0.397499 0.885213 0.006920 0.422225 0.887114 -3.484150 0.038681 -0.896211 -11.555112 0.230897 -4.098285 0.000001 0.000000 -0.000000 2.143771 -11.344156 -10.016267 5.375077 -13.934235 -64.714164 -0.000002 -6.364444 -0.000009 -7.194615 5.627964 8.434786 0.141745 1.392700 -11.622258 0.083765 1.072948 -8.927918 0.020977 0.538100 -4.463581 0.000002 0.000000 -0.000000 6.277232 16.289404 13.440150 8.903337 12.226829 -1.301467 1.871005 3.746217 1.882194 -0.000002 -0.000001 -0.000000 0.972663 0.650558 11.436250 21.258146 24.412740 53.528910 0.000005 26.723718 -0.000009 -18.053452 2.087203 -9.961697 7.209032 -23.607007 -7.406036 6.867243 -11.189088 1.266696 -0.189210 -1.164794 -1.546966 -0.000000 0.000001 0.000002 0.065106 -0.951201 7.830381 0.180040 -1.575131 13.040329 0.045145 -0.792680 6.518954 0.000000 -0.000001 0.000001 -20.407379 4.042520 3.494324 67.398032 1.458004 -1.354895 14.217822 0.289592 1.616223 -63.033514 0.596100 -0.675359 -0.000001 -0.000000 -0.000000 -26.185335 -1.854861 5.113436 37.641415 0.627064 5.668229 -5.623194 1.354108 -9.345200 -2.464943 -0.022553 0.523960 0.000000 0.000000 0.000000 
-3.236822 82.836243 124.981300 -3.154334 -2.001749 -2.130898 0.538838 1.389788 1.988305 0.145502 0.858269 0.871381 0.149867 0.884490 0.868262 -2.994729 -0.146034 -0.973402 -11.646422 -0.490321 -4.088448 0.000001 -0.000000 0.000000 2.175149 -11.500262 -10.076646 5.894977 -12.732747 -64.382135 0.000000 -7.618413 -0.000021 -9.936647 4.909078 8.373353 0.141745 1.392700 -11.622259 0.083767 1.072947 -8.927918 0.020971 0.538101 -4.463581 0.000001 0.000000 -0.000000 6.277232 16.289402 13.440144 8.903333 12.226829 -1.301467 1.871005 3.746219 1.882197 0.000000 0.000001 0.000003 0.957177 0.419899 11.134963 21.569604 25.706745 52.149194 0.000019 28.718756 -0.000014 -20.155489 2.989393 -12.356731 7.209032 -23.607005 -7.406033 6.867242 -11.189090 1.266701 -0.189207 -1.164794 -1.546965 0.000002 0.000001 0.000000 0.065105 -0.951204 7.830383 0.180042 -1.575130 13.040327 0.045146 -0.792682 6.518953 -0.000001 -0.000001 -0.000001 -24.511478 2.567183 3.879865 66.703744 1.662399 -3.610164 6.334882 0.390592 3.478371 -47.226581 0.667526 -1.222864 0.000000 0.000001 0.000000 -20.832659 -1.891696 5.146516 35.595907 0.801956 5.156356 -8.659908 1.648418 -9.904068 -1.623916 -0.032571 1.149202 -0.000000 -0.000000 -0.000000 
-3.298540 83.917122 128.279709 -3.353428 -1.558209 -1.710616 0.619808 2.030809 1.862113 0.262555 1.311498 0.896464 0.271441 1.338637 0.887861 -2.423871 -0.331713 -1.053934 -11.707440 -1.324451 -4.087059 -0.000000 -0.000000 0.000000 2.201663 -11.797616 -10.032696 6.787696 -12.574047 -63.823992 0.000003 -9.025195 -0.000013 -12.272655 4.233841 7.784047 0.141746 1.392700 -11.622263 0.083766 1.072947 -8.927920 0.020972 0.538100 -4.463582 0.000000 -0.000000 -0.000000 6.277231 16.289404 13.440146 8.903330 12.226827 -1.301469 1.871002 3.746217 1.882191 -0.000001 -0.000000 0.000000 0.938153 0.188965 11.057155 21.952892 27.016520 50.648291 -0.000006 30.761352 0.000019 -22.465959 4.013802 -14.758261 7.209036 -23.607005 -7.406036 6.867242 -11.189089 1.266703 -0.189208 -1.164793 -1.546962 0.000001 -0.000002 -0.000002 0.065106 -0.951203 7.830384 0.180040 -1.575130 13.040326 0.045146 -0.792679 6.518952 0.000000 -0.000000 0.000000 -26.478470 0.515421 4.315919 61.471286 5.287328 -6.144863 0.013209 0.621306 3.459895 -30.288897 0.587054 -2.678272 0.000000 0.000000 -0.000000 -15.428332 -2.558926 5.516180 32.551022 0.986512 3.679752 -11.380091 1.986445 -10.642998 -0.857626 -0.019162 1.285397 0.000000 -0.000000 0.000000 
-3.171549 84.622711 131.454102 -2.836163 -1.167460 -1.498648 0.528833 2.632224 1.994392 0.221367 1.764981 0.957769 0.229439 1.791346 0.940677 -1.936566 -0.508416 -1.136572 -11.793625 -2.231016 -4.098490 -0.000002 0.000000 -0.000000 2.237200 -12.316503 -9.892718 8.115495 -13.735381 -63.082623 -0.000000 -10.043770 -0.000002 -12.427364 4.029438 6.887605 0.141745 1.392699 -11.622262 0.083768 1.072947 -8.927918 0.020972 0.538100 -4.463581 0.000000 0.000000 -0.000000 6.277232 16.289400 13.440143 8.903338 12.226829 -1.301473 1.871003 3.746217 1.882193 -0.000001 0.000001 0.000000 0.918016 -0.044089 11.211417 22.525740 28.200140 48.830446 0.000001 32.800628 -0.000007 -24.220904 4.830247 -16.710541 7.209034 -23.607007 -7.406036 6.867240 -11.189089 1.266694 -0.189210 -1.164792 -1.546960 0.000003 0.000001 0.000002 0.065104 -0.951197 7.830385 0.180042 -1.575131 13.040326 0.045144 -0.792680 6.518956 0.000002 0.000001 -0.000000 -28.029356 -2.527422 3.275508 52.445580 8.044509 -7.664047 -1.999813 2.318101 5.056436 -16.860834 0.105468 -2.931908 0.000000 -0.000000 0.000000 -10.198358 -3.134137 6.607918 28.857826 0.046560 1.908906 -14.982703 2.827360 -12.525658 -0.181638 -0.000685 0.243129 -0.000000 0.000000 0.000000 
-3.171549 84.622711 131.454102 -2.836163 -1.167460 -1.498648 0.528833 2.632224 1.994392 0.221367 1.764981 0.957769 0.229439 1.791346 0.940677 -1.936566 -0.508416 -1.136572 -11.793625 -2.231016 -4.098490 -0.000002 0.000000 -0.000000 2.237200 -12.316503 -9.892718 8.115495 -13.735381 -63.082623 -0.000000 -10.043770 -0.000002 -12.427364 4.029438 6.887605 0.141745 1.392699 -11.622262 0.083768 1.072947 -8.927918 0.020972 0.538100 -4.463581 0.000000 0.000000 -0.000000 6.277232 16.289400 13.440143 8.903338 12.226829 -1.301473 1.871003 3.746217 1.882193 -0.000001 0.000001 0.000000 0.918016 -0.044089 11.211417 22.525740 28.200140 48.830446 0.000001 32.800628 -0.000007 -24.220904 4.830247 -16.710541 7.209034 -23.607007 -7.406036 6.867240 -11.189089 1.266694 -0.189210 -1.164792 -1.546960 0.000003 0.000001 0.000002 0.065104 -0.951197 7.830385 0.180042 -1.575131 13.040326 0.045144 -0.792680 6.518956 0.000002 0.000001 -0.000000 -28.029356 -2.527422 3.275508 52.445580 8.044509 -7.664047 -1.999813 2.318101 5.056436 -16.860834 0.105468 -2.931908 0.000000 -0.000000 0.000000 -10.198358 -3.134137 6.607918 28.857826 0.046560 1.908906 -14.982703 2.827360 -12.525658 -0.181638 -0.000685 0.243129 -0.000000 0.000000 0.000000 
-3.171549 84.622711 131.454102 -2.836163 -1.167460 -1.498648 0.528833 2.632224 1.994392 0.221367 1.764981 0.957769 0.229439 1.791346 0.940677 -1.936566 -0.508416 -1.136572 -11.793625 -2.231016 -4.098490 -0.000002 0.000000 -0.000000 2.237200 -12.316503 -9.892718 8.115495 -13.735381 -63.082623 -0.000000 -10.043770 -0.000002 -12.427364 4.029438 6.887605 0.141745 1.392699 -11.622262 0.083768 1.072947 -8.927918 0.020972 0.538100 -4.463581 0.000000 0.000000 -0.000000 6.277232 16.289400 13.440143 8.903338 12.226829 -1.301473 1.871003 3.746217 1.882193 -0.000001 0.000001 0.000000 0.918016 -0.044089 11.211417 22.525740 28.200140 48.830446 0.000001 32.800628 -0.000007 -24.220904 4.830247 -16.710541 7.209034 -23.607007 -7.406036 6.867240 -11.189089 1.266694 -0.189210 -1.164792 -1.546960 0.000003 0.000001 0.000002 0.065104 -0.951197 7.830385 0.180042 -1.575131 13.040326 0.045144 -0.792680 6.518956 0.000002 0.000001 -0.000000 -28.029356 -2.527422 3.275508 52.445580 8.044509 -7.664047 -1.999813 2.318101 5.056436 -16.860834 0.105468 -2.931908 0.000000 -0.000000 0.000000 -10.198358 -3.134137 6.607918 28.857826 0.046560 1.908906 -14.982703 2.827360 -12.525658 -0.181638 -0.000685 0.243129 -0.000000 0.000000 0.000000 
-3.171549 84.622711 131.454102 -2.836163 -1.167460 -1.498648 0.528833 2.632224 1.994392 0.221367 1.764981 0.957769 0.229439 1.791346 0.940677 -1.936566 -0.508416 -1.136572 -11.793625 -2.231016 -4.098490 -0.000002 0.000000 -0.000000 2.237200 -12.316503 -9.892718 8.115495 -13.735381 -63.082623 -0.000000 -10.043770 -0.000002 -12.427364 4.029438 6.887605 0.141745 1.392699 -11.622262 0.083768 1.072947 -8.927918 0.020972 0.538100 -4.463581 0.000000 0.000000 -0.000000 6.277232 16.289400 13.440143 8.903338 12.226829 -1.301473 1.871003 3.746217 1.882193 -0.000001 0.000001 0.000000 0.918016 -0.044089 11.211417 22.525740 28.200140 48.830446 0.000001 32.800628 -0.000007 -24.220904 4.830247 -16.710541 7.209034 -23.607007 -7.406036 6.867240 -11.189089 1.266694 -0.189210 -1.164792 -1.546960 0.000003 0.000001 0.000002 0.065104 -0.951197 7.830385 0.180042 -1.575131 13.040326 0.045144 -0.792680 6.518956 0.000002 0.000001 -0.000000 -28.029356 -2.527422 3.275508 52.445580 8.044509 -7.664047 -1.999813 2.318101 5.056436 -16.860834 0.105468 -2.931908 0.000000 -0.000000 0.000000 -10.198358 -3.134137 6.607918 28.857826 0.046560 1.908906 -14.982703 2.827360 -12.525658 -0.181638 -0.000685 0.243129 -0.000000 0.000000 0.000000 
